<svg width="350" height="350" viewBox="0 0 350 350" fill="none" xmlns="http://www.w3.org/2000/svg">
<rect width="350" height="350" fill="white"/>
<rect x="46.75" y="25.75" width="256.5" height="299.5" fill="white" stroke="black" stroke-width="1.5"/>
<path d="M114.9 113.686C114.659 113.551 114.354 113.638 114.22 113.879L112.031 117.811C111.897 118.052 111.984 118.357 112.225 118.491C112.466 118.625 112.771 118.539 112.905 118.297L114.85 114.802L118.345 116.748C118.587 116.882 118.891 116.796 119.025 116.554C119.16 116.313 119.073 116.009 118.832 115.874L114.9 113.686ZM175.481 325.863L115.138 113.985L114.176 114.259L174.519 326.137L175.481 325.863Z" fill="black"/>
<path d="M175 326L46 184" stroke="black"/>
<path d="M175 326L303 184" stroke="black"/>
<path d="M175 25V324" stroke="black" stroke-opacity="0.6" stroke-dasharray="2 2"/>
<path d="M184 326C184 324.687 183.754 323.386 183.277 322.173C182.799 320.96 182.1 319.858 181.218 318.929C180.335 318 179.288 317.264 178.135 316.761C176.983 316.259 175.748 316 174.5 316C173.252 316 172.017 316.259 170.865 316.761C169.712 317.264 168.665 318 167.782 318.929C166.9 319.858 166.201 320.96 165.723 322.173C165.246 323.386 165 324.687 165 326L174.5 326H184Z" fill="#9AD9CA"/>
<path d="M107.728 112.224C107.705 111.948 107.463 111.744 107.188 111.767L102.704 112.146C102.429 112.17 102.224 112.412 102.248 112.687C102.271 112.962 102.513 113.166 102.788 113.143L106.774 112.806L107.111 116.792C107.134 117.067 107.376 117.271 107.651 117.248C107.926 117.225 108.13 116.983 108.107 116.708L107.728 112.224ZM47.2686 184.072L107.612 112.588L106.848 111.943L46.5045 183.427L47.2686 184.072Z" fill="black"/>
<path d="M119.103 109.02C118.849 109.128 118.73 109.422 118.838 109.676L120.596 113.818C120.704 114.072 120.998 114.191 121.252 114.083C121.506 113.975 121.625 113.682 121.517 113.428L119.954 109.745L123.636 108.183C123.89 108.075 124.009 107.781 123.901 107.527C123.793 107.273 123.5 107.154 123.245 107.262L119.103 109.02ZM303.301 183.286L119.486 109.017L119.111 109.944L302.926 184.213L303.301 183.286Z" fill="black"/>
<path d="M33 184.5H38M43 184.5H38M38 184.5V325M33 325H43" stroke="black"/>
<path d="M33 107H38M43 107H38M38 107V185M33 185H43" stroke="black"/>
<path d="M175 328L175 333M175 338L175 333M175 333L47 333M47 328L47 338" stroke="black"/>
<path d="M113 12L113 17M113 22L113 17M113 17L47 17M47 12L47 22" stroke="black"/>
<circle cx="113" cy="108" r="4" fill="#D77F7F"/>
<path d="M47 162C51 159.5 59.5 164.333 59.5 169.5" stroke="black"/>
<path d="M59.3286 198.382C59.4937 203.096 51.0579 208.041 46.5834 205.457" stroke="black"/>
<path d="M56 158.5L52 166" stroke="black"/>
<path d="M56 209L52 201.5" stroke="black"/>
<path d="M96.0534 254.535C95.535 254.635 95.2674 255.003 95.2674 255.371C95.2674 255.773 95.5852 255.906 95.8193 255.906C96.2875 255.906 96.6721 255.505 96.6721 255.003C96.6721 254.468 96.1537 254 95.3176 254C94.6487 254 93.8795 254.301 93.1772 255.321C93.0601 254.435 92.3912 254 91.7224 254C91.0702 254 90.7358 254.502 90.5351 254.87C90.2508 255.472 90 256.475 90 256.558C90 256.625 90.0669 256.709 90.1839 256.709C90.3177 256.709 90.3344 256.692 90.4348 256.308C90.6856 255.304 91.0033 254.334 91.6722 254.334C92.0735 254.334 92.1906 254.619 92.1906 255.104C92.1906 255.472 92.0234 256.124 91.9063 256.642L91.4381 258.448C91.3712 258.766 91.1873 259.518 91.1037 259.819C90.9866 260.254 90.8027 261.04 90.8027 261.124C90.8027 261.358 90.9866 261.542 91.2374 261.542C91.4214 261.542 91.7391 261.425 91.8394 261.09C91.8896 260.956 92.5083 258.431 92.6086 258.047C92.6922 257.679 92.7926 257.328 92.8762 256.96C92.9431 256.726 93.01 256.458 93.0601 256.241C93.1103 256.09 93.5618 255.271 93.9798 254.903C94.1805 254.719 94.6153 254.334 95.3009 254.334C95.5684 254.334 95.836 254.385 96.0534 254.535Z" fill="black"/>
<path d="M100.428 256.781C100.428 256.48 100.405 256.469 100.104 256.469C99.6473 256.915 99.0565 257.183 97.9974 257.183V257.551C98.2984 257.551 98.9004 257.551 99.547 257.25V262.969C99.547 263.381 99.5136 263.515 98.4545 263.515H98.0643V263.883C98.5214 263.849 99.4801 263.849 99.9818 263.849C100.483 263.849 101.453 263.849 101.91 263.883V263.515H101.52C100.461 263.515 100.428 263.381 100.428 262.969V256.781Z" fill="black"/>
<path d="M71.5071 125.798C70.9887 125.898 70.7212 126.266 70.7212 126.634C70.7212 127.035 71.0389 127.169 71.273 127.169C71.7412 127.169 72.1258 126.768 72.1258 126.266C72.1258 125.731 71.6074 125.263 70.7713 125.263C70.1025 125.263 69.3332 125.564 68.6309 126.584C68.5139 125.697 67.845 125.263 67.1761 125.263C66.5239 125.263 66.1895 125.764 65.9888 126.132C65.7046 126.734 65.4537 127.738 65.4537 127.821C65.4537 127.888 65.5206 127.972 65.6377 127.972C65.7715 127.972 65.7882 127.955 65.8885 127.57C66.1393 126.567 66.4571 125.597 67.1259 125.597C67.5273 125.597 67.6443 125.881 67.6443 126.366C67.6443 126.734 67.4771 127.386 67.36 127.905L66.8918 129.711C66.8249 130.028 66.641 130.781 66.5574 131.082C66.4403 131.517 66.2564 132.303 66.2564 132.386C66.2564 132.62 66.4403 132.804 66.6912 132.804C66.8751 132.804 67.1928 132.687 67.2932 132.353C67.3433 132.219 67.962 129.694 68.0624 129.309C68.146 128.942 68.2463 128.59 68.3299 128.222C68.3968 127.988 68.4637 127.721 68.5139 127.503C68.564 127.353 69.0155 126.534 69.4336 126.166C69.6342 125.982 70.069 125.597 70.7546 125.597C71.0222 125.597 71.2897 125.647 71.5071 125.798Z" fill="black"/>
<path d="M75.5247 132.871C75.7031 132.704 76.1713 132.336 76.3497 132.18C77.0408 131.545 77.6986 130.931 77.6986 129.917C77.6986 128.59 76.5838 127.732 75.1903 127.732C73.8525 127.732 72.9718 128.746 72.9718 129.739C72.9718 130.285 73.4066 130.363 73.5627 130.363C73.7968 130.363 74.1424 130.196 74.1424 129.772C74.1424 129.192 73.5849 129.192 73.4512 129.192C73.7745 128.379 74.5214 128.1 75.0676 128.1C76.1044 128.1 76.6395 128.981 76.6395 129.917C76.6395 131.076 75.8257 131.924 74.5102 133.273L73.1056 134.722C72.9718 134.844 72.9718 134.867 72.9718 135.145H77.3753L77.6986 133.15H77.353C77.3195 133.373 77.2303 133.93 77.0966 134.142C77.0297 134.231 76.1824 134.231 76.0041 134.231H74.0197L75.5247 132.871Z" fill="black"/>
<path d="M258.053 254.535C257.535 254.635 257.267 255.003 257.267 255.371C257.267 255.773 257.585 255.906 257.819 255.906C258.287 255.906 258.672 255.505 258.672 255.003C258.672 254.468 258.154 254 257.318 254C256.649 254 255.88 254.301 255.177 255.321C255.06 254.435 254.391 254 253.722 254C253.07 254 252.736 254.502 252.535 254.87C252.251 255.472 252 256.475 252 256.558C252 256.625 252.067 256.709 252.184 256.709C252.318 256.709 252.334 256.692 252.435 256.308C252.686 255.304 253.003 254.334 253.672 254.334C254.074 254.334 254.191 254.619 254.191 255.104C254.191 255.472 254.023 256.124 253.906 256.642L253.438 258.448C253.371 258.766 253.187 259.518 253.104 259.819C252.987 260.254 252.803 261.04 252.803 261.124C252.803 261.358 252.987 261.542 253.237 261.542C253.421 261.542 253.739 261.425 253.839 261.09C253.89 260.956 254.508 258.431 254.609 258.047C254.692 257.679 254.793 257.328 254.876 256.96C254.943 256.726 255.01 256.458 255.06 256.241C255.11 256.09 255.562 255.271 255.98 254.903C256.181 254.719 256.615 254.334 257.301 254.334C257.568 254.334 257.836 254.385 258.053 254.535Z" fill="black"/>
<path d="M261.748 260.159C262.628 260.159 263.186 260.806 263.186 261.976C263.186 263.37 262.394 263.782 261.803 263.782C261.19 263.782 260.354 263.559 259.964 262.969C260.365 262.969 260.644 262.712 260.644 262.344C260.644 261.988 260.388 261.731 260.031 261.731C259.73 261.731 259.418 261.921 259.418 262.367C259.418 263.426 260.555 264.117 261.826 264.117C263.308 264.117 264.345 263.091 264.345 261.976C264.345 261.051 263.609 260.204 262.472 259.959C263.353 259.646 264.011 258.888 264.011 257.997C264.011 257.105 263.007 256.469 261.848 256.469C260.655 256.469 259.752 257.116 259.752 257.963C259.752 258.376 260.031 258.554 260.321 258.554C260.666 258.554 260.889 258.309 260.889 257.985C260.889 257.573 260.533 257.417 260.287 257.406C260.755 256.793 261.614 256.759 261.815 256.759C262.104 256.759 262.952 256.848 262.952 257.997C262.952 258.777 262.628 259.245 262.472 259.423C262.138 259.769 261.881 259.791 261.201 259.836C260.99 259.847 260.9 259.858 260.9 260.003C260.9 260.159 261.001 260.159 261.19 260.159H261.748Z" fill="black"/>
<path d="M201.053 125.535C200.535 125.635 200.267 126.003 200.267 126.371C200.267 126.773 200.585 126.906 200.819 126.906C201.287 126.906 201.672 126.505 201.672 126.003C201.672 125.468 201.154 125 200.318 125C199.649 125 198.88 125.301 198.177 126.321C198.06 125.435 197.391 125 196.722 125C196.07 125 195.736 125.502 195.535 125.87C195.251 126.472 195 127.475 195 127.558C195 127.625 195.067 127.709 195.184 127.709C195.318 127.709 195.334 127.692 195.435 127.308C195.686 126.304 196.003 125.334 196.672 125.334C197.074 125.334 197.191 125.619 197.191 126.104C197.191 126.472 197.023 127.124 196.906 127.642L196.438 129.448C196.371 129.766 196.187 130.518 196.104 130.819C195.987 131.254 195.803 132.04 195.803 132.124C195.803 132.358 195.987 132.542 196.237 132.542C196.421 132.542 196.739 132.425 196.839 132.09C196.89 131.956 197.508 129.431 197.609 129.047C197.692 128.679 197.793 128.328 197.876 127.96C197.943 127.726 198.01 127.458 198.06 127.241C198.11 127.09 198.562 126.271 198.98 125.903C199.181 125.719 199.615 125.334 200.301 125.334C200.568 125.334 200.836 125.385 201.053 125.535Z" fill="black"/>
<path d="M206.32 127.67C206.32 127.447 206.32 127.358 206.085 127.358C205.94 127.358 205.929 127.369 205.818 127.525L202.262 132.687V133.054H205.405V133.98C205.405 134.392 205.372 134.515 204.514 134.515H204.257V134.883C205.205 134.849 205.227 134.849 205.862 134.849C206.498 134.849 206.52 134.849 207.468 134.883V134.515H207.211C206.353 134.515 206.32 134.392 206.32 133.98V133.054H207.501V132.687H206.32V127.67ZM205.483 128.573V132.687H202.652L205.483 128.573Z" fill="black"/>
<path d="M151.346 168.502C150.828 168.603 150.56 168.97 150.56 169.338C150.56 169.74 150.878 169.873 151.112 169.873C151.58 169.873 151.965 169.472 151.965 168.97C151.965 168.435 151.446 167.967 150.61 167.967C149.941 167.967 149.172 168.268 148.47 169.288C148.353 168.402 147.684 167.967 147.015 167.967C146.363 167.967 146.028 168.469 145.828 168.837C145.543 169.439 145.293 170.442 145.293 170.526C145.293 170.593 145.359 170.676 145.476 170.676C145.61 170.676 145.627 170.659 145.727 170.275C145.978 169.271 146.296 168.302 146.965 168.302C147.366 168.302 147.483 168.586 147.483 169.071C147.483 169.439 147.316 170.091 147.199 170.609L146.731 172.415C146.664 172.733 146.48 173.485 146.396 173.786C146.279 174.221 146.095 175.007 146.095 175.091C146.095 175.325 146.279 175.509 146.53 175.509C146.714 175.509 147.032 175.392 147.132 175.057C147.182 174.924 147.801 172.398 147.901 172.014C147.985 171.646 148.085 171.295 148.169 170.927C148.236 170.693 148.303 170.425 148.353 170.208C148.403 170.057 148.854 169.238 149.272 168.87C149.473 168.686 149.908 168.302 150.593 168.302C150.861 168.302 151.129 168.352 151.346 168.502Z" fill="black"/>
<path d="M153.78 171.585C153.925 171.629 154.371 171.741 154.84 171.741C156.233 171.741 157.08 170.76 157.08 170.593C157.08 170.47 157.002 170.436 156.947 170.436C156.924 170.436 156.902 170.436 156.802 170.492C156.367 170.659 155.854 170.793 155.252 170.793C154.594 170.793 154.048 170.626 153.702 170.492C153.591 170.436 153.569 170.436 153.558 170.436C153.413 170.436 153.413 170.559 153.413 170.76V174.026C153.413 174.227 153.413 174.361 153.591 174.361C153.68 174.361 153.714 174.316 153.769 174.227C153.903 174.06 154.327 173.491 155.274 173.491C155.899 173.491 156.2 174.004 156.3 174.216C156.489 174.617 156.512 175.13 156.512 175.565C156.512 175.977 156.501 176.579 156.188 177.069C155.977 177.404 155.531 177.75 154.94 177.75C154.215 177.75 153.502 177.292 153.245 176.568C153.279 176.579 153.346 176.579 153.357 176.579C153.669 176.579 153.914 176.378 153.914 176.033C153.914 175.62 153.591 175.475 153.368 175.475C153.167 175.475 152.811 175.587 152.811 176.066C152.811 177.069 153.68 178.084 154.962 178.084C156.356 178.084 157.537 177.003 157.537 175.62C157.537 174.327 156.601 173.179 155.285 173.179C154.728 173.179 154.204 173.357 153.78 173.736V171.585Z" fill="black"/>
<path d="M101.365 102.345C101.365 102.314 101.365 102.293 101.188 102.116C100.146 101.064 99.5626 99.3447 99.5626 97.2194C99.5626 95.1983 100.052 93.4585 101.261 92.2292C101.365 92.1354 101.365 92.1146 101.365 92.0833C101.365 92.0208 101.313 92 101.271 92C101.136 92 100.281 92.7501 99.7709 93.7711C99.2396 94.8233 99 95.938 99 97.2194C99 98.1466 99.1459 99.3864 99.6876 100.501C100.302 101.751 101.157 102.428 101.271 102.428C101.313 102.428 101.365 102.408 101.365 102.345Z" fill="black"/>
<path d="M106.884 95.563C106.551 95.6255 106.426 95.8755 106.426 96.0734C106.426 96.3235 106.624 96.4068 106.77 96.4068C107.082 96.4068 107.301 96.1359 107.301 95.8547C107.301 95.4171 106.801 95.2192 106.363 95.2192C105.728 95.2192 105.374 95.8442 105.28 96.0422C105.04 95.2608 104.394 95.2192 104.207 95.2192C103.144 95.2192 102.582 96.5839 102.582 96.8131C102.582 96.8548 102.623 96.9069 102.696 96.9069C102.779 96.9069 102.8 96.8444 102.821 96.8027C103.175 95.6463 103.873 95.4275 104.175 95.4275C104.644 95.4275 104.738 95.8651 104.738 96.1151C104.738 96.3443 104.676 96.5839 104.551 97.084L104.196 98.5112C104.04 99.1363 103.738 99.7093 103.186 99.7093C103.134 99.7093 102.873 99.7093 102.654 99.5739C103.03 99.501 103.113 99.1884 103.113 99.0634C103.113 98.855 102.957 98.73 102.759 98.73C102.509 98.73 102.238 98.9488 102.238 99.2822C102.238 99.7197 102.727 99.9177 103.175 99.9177C103.675 99.9177 104.03 99.5218 104.248 99.0947C104.415 99.7093 104.936 99.9177 105.321 99.9177C106.384 99.9177 106.947 98.5529 106.947 98.3237C106.947 98.2716 106.905 98.23 106.842 98.23C106.749 98.23 106.738 98.2821 106.707 98.3654C106.426 99.2822 105.822 99.7093 105.353 99.7093C104.988 99.7093 104.79 99.4385 104.79 99.0113C104.79 98.7821 104.832 98.6154 104.999 97.9278L105.363 96.511C105.519 95.8859 105.874 95.4275 106.353 95.4275C106.374 95.4275 106.665 95.4275 106.884 95.563Z" fill="black"/>
<path d="M109.813 97.0423C109.813 96.8895 109.701 96.7784 109.542 96.7784C109.361 96.7784 109.16 96.9451 109.16 97.1534C109.16 97.3062 109.271 97.4174 109.431 97.4174C109.611 97.4174 109.813 97.2507 109.813 97.0423ZM108.798 99.5912L108.423 100.55C108.389 100.654 108.354 100.737 108.354 100.855C108.354 101.196 108.618 101.446 108.986 101.446C109.66 101.446 109.944 100.473 109.944 100.383C109.944 100.314 109.889 100.293 109.84 100.293C109.757 100.293 109.743 100.341 109.722 100.411C109.562 100.966 109.278 101.251 109 101.251C108.917 101.251 108.833 101.216 108.833 101.029C108.833 100.862 108.882 100.737 108.972 100.522C109.042 100.334 109.111 100.147 109.187 99.9593L109.403 99.3968C109.465 99.237 109.549 99.0217 109.549 98.9037C109.549 98.5564 109.271 98.3133 108.917 98.3133C108.243 98.3133 107.951 99.2856 107.951 99.3759C107.951 99.4384 108 99.4662 108.055 99.4662C108.146 99.4662 108.153 99.4246 108.173 99.3551C108.368 98.6953 108.687 98.5078 108.896 98.5078C108.993 98.5078 109.062 98.5425 109.062 98.737C109.062 98.8064 109.055 98.9037 108.986 99.112L108.798 99.5912Z" fill="black"/>
<path d="M112.721 99.8552C112.721 99.2509 112.523 98.803 112.096 98.803C111.762 98.803 111.596 99.0738 111.596 99.303C111.596 99.5322 111.752 99.8135 112.106 99.8135C112.242 99.8135 112.356 99.7718 112.45 99.6781C112.471 99.6572 112.481 99.6572 112.492 99.6572C112.512 99.6572 112.512 99.8031 112.512 99.8552C112.512 100.199 112.45 100.876 111.846 101.553C111.731 101.678 111.731 101.699 111.731 101.72C111.731 101.772 111.783 101.824 111.835 101.824C111.919 101.824 112.721 101.053 112.721 99.8552Z" fill="black"/>
<path d="M117.999 100.98C117.718 101.376 117.312 101.73 116.801 101.73C116.676 101.73 116.176 101.71 116.02 101.23C116.051 101.241 116.103 101.241 116.124 101.241C116.436 101.241 116.645 100.97 116.645 100.73C116.645 100.491 116.447 100.407 116.291 100.407C116.124 100.407 115.759 100.532 115.759 101.043C115.759 101.574 116.207 101.939 116.801 101.939C117.843 101.939 118.895 100.98 119.187 99.8239L120.208 95.7609C120.218 95.7088 120.239 95.6463 120.239 95.5838C120.239 95.4275 120.114 95.3233 119.958 95.3233C119.864 95.3233 119.645 95.365 119.562 95.6776L118.791 98.7404C118.739 98.928 118.739 98.9488 118.655 99.0634C118.447 99.3551 118.103 99.7093 117.603 99.7093C117.02 99.7093 116.968 99.1363 116.968 98.855C116.968 98.2612 117.249 97.459 117.53 96.7089C117.645 96.4068 117.707 96.261 117.707 96.0526C117.707 95.615 117.395 95.2192 116.884 95.2192C115.926 95.2192 115.54 96.7298 115.54 96.8131C115.54 96.8548 115.582 96.9069 115.655 96.9069C115.749 96.9069 115.759 96.8652 115.801 96.7194C116.051 95.8442 116.447 95.4275 116.853 95.4275C116.947 95.4275 117.124 95.4275 117.124 95.7713C117.124 96.0422 117.009 96.3443 116.853 96.7402C116.343 98.1049 116.343 98.4487 116.343 98.6988C116.343 99.6885 117.051 99.9177 117.572 99.9177C117.874 99.9177 118.249 99.8239 118.614 99.4385L118.624 99.4489C118.468 100.064 118.364 100.47 117.999 100.98Z" fill="black"/>
<path d="M122.303 97.0423C122.303 96.8895 122.192 96.7784 122.032 96.7784C121.851 96.7784 121.65 96.9451 121.65 97.1534C121.65 97.3062 121.761 97.4174 121.921 97.4174C122.101 97.4174 122.303 97.2507 122.303 97.0423ZM121.289 99.5912L120.914 100.55C120.879 100.654 120.844 100.737 120.844 100.855C120.844 101.196 121.108 101.446 121.476 101.446C122.15 101.446 122.435 100.473 122.435 100.383C122.435 100.314 122.379 100.293 122.331 100.293C122.247 100.293 122.233 100.341 122.212 100.411C122.053 100.966 121.768 101.251 121.49 101.251C121.407 101.251 121.323 101.216 121.323 101.029C121.323 100.862 121.372 100.737 121.462 100.522C121.532 100.334 121.601 100.147 121.678 99.9593L121.893 99.3968C121.955 99.237 122.039 99.0217 122.039 98.9037C122.039 98.5564 121.761 98.3133 121.407 98.3133C120.733 98.3133 120.441 99.2856 120.441 99.3759C120.441 99.4384 120.49 99.4662 120.546 99.4662C120.636 99.4662 120.643 99.4246 120.664 99.3551C120.858 98.6953 121.178 98.5078 121.386 98.5078C121.483 98.5078 121.553 98.5425 121.553 98.737C121.553 98.8064 121.546 98.9037 121.476 99.112L121.289 99.5912Z" fill="black"/>
<path d="M126.117 97.2194C126.117 96.4276 126.013 95.1358 125.43 93.9273C124.815 92.6772 123.961 92 123.846 92C123.805 92 123.753 92.0208 123.753 92.0833C123.753 92.1146 123.753 92.1354 123.93 92.3125C124.971 93.3648 125.555 95.0837 125.555 97.209C125.555 99.2301 125.065 100.97 123.857 102.199C123.753 102.293 123.753 102.314 123.753 102.345C123.753 102.408 123.805 102.428 123.846 102.428C123.982 102.428 124.836 101.678 125.346 100.657C125.878 99.5947 126.117 98.4696 126.117 97.2194Z" fill="black"/>
<path d="M22.7466 248.45C22.7646 248.378 22.8006 248.27 22.8006 248.18C22.8006 248 22.6205 248 22.5845 248C22.5665 248 21.918 248.054 21.5938 248.09C21.2876 248.108 21.0174 248.144 20.6932 248.162C20.2609 248.198 20.1348 248.216 20.1348 248.54C20.1348 248.72 20.3149 248.72 20.495 248.72C21.4137 248.72 21.4137 248.883 21.4137 249.063C21.4137 249.135 21.4137 249.171 21.3236 249.495L19.0901 258.429C19.036 258.627 19 258.771 19 259.06C19 259.96 19.6665 260.681 20.5851 260.681C21.1795 260.681 21.5758 260.284 21.864 259.726C22.1702 259.132 22.4224 257.997 22.4224 257.925C22.4224 257.835 22.3503 257.763 22.2422 257.763C22.0801 257.763 22.0621 257.853 21.9901 258.123C21.6658 259.366 21.3416 260.321 20.6211 260.321C20.0807 260.321 20.0807 259.744 20.0807 259.492C20.0807 259.42 20.0807 259.042 20.2068 258.537L22.7466 248.45Z" fill="black"/>
<path d="M27.1956 255.553C27.1956 255.229 27.1716 255.217 26.8474 255.217C26.355 255.697 25.7186 255.986 24.5778 255.986V256.382C24.902 256.382 25.5505 256.382 26.247 256.058V262.218C26.247 262.662 26.2109 262.806 25.0702 262.806H24.6499V263.202C25.1422 263.166 26.1749 263.166 26.7153 263.166C27.2557 263.166 28.3004 263.166 28.7927 263.202V262.806H28.3724C27.2317 262.806 27.1956 262.662 27.1956 262.218V255.553Z" fill="black"/>
<path d="M22.7466 138.45C22.7646 138.378 22.8006 138.27 22.8006 138.18C22.8006 138 22.6205 138 22.5845 138C22.5665 138 21.918 138.054 21.5938 138.09C21.2876 138.108 21.0174 138.144 20.6932 138.162C20.2609 138.198 20.1348 138.216 20.1348 138.54C20.1348 138.72 20.3149 138.72 20.495 138.72C21.4137 138.72 21.4137 138.883 21.4137 139.063C21.4137 139.135 21.4137 139.171 21.3236 139.495L19.0901 148.429C19.036 148.627 19 148.771 19 149.06C19 149.96 19.6665 150.681 20.5851 150.681C21.1795 150.681 21.5758 150.284 21.864 149.726C22.1702 149.132 22.4224 147.997 22.4224 147.925C22.4224 147.835 22.3503 147.763 22.2422 147.763C22.0801 147.763 22.0621 147.853 21.9901 148.123C21.6658 149.366 21.3416 150.321 20.6211 150.321C20.0807 150.321 20.0807 149.744 20.0807 149.492C20.0807 149.42 20.0807 149.042 20.2068 148.537L22.7466 138.45Z" fill="black"/>
<path d="M26.8114 150.753C27.0035 150.573 27.5078 150.176 27.7 150.008C28.4445 149.324 29.153 148.663 29.153 147.571C29.153 146.142 27.9522 145.217 26.4511 145.217C25.0101 145.217 24.0615 146.31 24.0615 147.378C24.0615 147.967 24.5298 148.051 24.6979 148.051C24.9501 148.051 25.3223 147.871 25.3223 147.414C25.3223 146.79 24.7219 146.79 24.5778 146.79C24.9261 145.913 25.7306 145.613 26.319 145.613C27.4358 145.613 28.0122 146.562 28.0122 147.571C28.0122 148.819 27.1356 149.732 25.7186 151.185L24.2056 152.746C24.0615 152.878 24.0615 152.902 24.0615 153.202H28.8047L29.153 151.053H28.7807C28.7447 151.293 28.6486 151.894 28.5045 152.122C28.4325 152.218 27.5199 152.218 27.3277 152.218H25.1902L26.8114 150.753Z" fill="black"/>
<path d="M79.1628 1.45947C79.1783 1.39759 79.2093 1.30477 79.2093 1.22741C79.2093 1.07271 79.0545 1.07271 79.0236 1.07271C79.0081 1.07271 78.2501 1.13459 78.1727 1.15006C77.9097 1.16553 77.6777 1.19647 77.3992 1.21194C77.0124 1.24288 76.9041 1.25835 76.9041 1.53682C76.9041 1.69153 77.0279 1.69153 77.2445 1.69153C78.0026 1.69153 78.018 1.83076 78.018 1.98547C78.018 2.07829 77.9871 2.20206 77.9716 2.24847L77.0279 6.0078C76.8577 5.60556 76.44 4.98674 75.6356 4.98674C73.8874 4.98674 72 7.24544 72 9.53507C72 11.0666 72.8973 11.9639 73.9493 11.9639C74.8002 11.9639 75.5273 11.2987 75.9604 10.7882C76.1152 11.7009 76.8423 11.9639 77.3064 11.9639C77.7705 11.9639 78.1418 11.6855 78.4203 11.1285C78.6678 10.6025 78.8844 9.65883 78.8844 9.59695C78.8844 9.5196 78.8225 9.45772 78.7297 9.45772C78.5904 9.45772 78.575 9.53507 78.5131 9.76713C78.281 10.6799 77.9871 11.6545 77.3528 11.6545C76.9041 11.6545 76.8732 11.2523 76.8732 10.9429C76.8732 10.881 76.8732 10.5561 76.9815 10.1229L79.1628 1.45947ZM76.0378 9.96824C75.9604 10.2312 75.9604 10.2622 75.7439 10.5561C75.4035 10.9893 74.7228 11.6545 73.9957 11.6545C73.3614 11.6545 73.0056 11.0821 73.0056 10.1694C73.0056 9.31848 73.4852 7.58579 73.7791 6.93603C74.3051 5.85309 75.0322 5.29615 75.6356 5.29615C76.6566 5.29615 76.8577 6.56473 76.8577 6.6885C76.8577 6.70397 76.8113 6.90509 76.7959 6.93603L76.0378 9.96824Z" fill="black"/>
<path d="M82.1609 12.0258C82.3259 11.8711 82.7591 11.5308 82.9241 11.3864C83.5636 10.7985 84.1721 10.2312 84.1721 9.29269C84.1721 8.06536 83.1407 7.27121 81.8515 7.27121C80.6138 7.27121 79.7991 8.20975 79.7991 9.12767C79.7991 9.63304 80.2013 9.70524 80.3457 9.70524C80.5623 9.70524 80.882 9.55053 80.882 9.15861C80.882 8.6223 80.3663 8.6223 80.2426 8.6223C80.5416 7.8694 81.2327 7.61156 81.738 7.61156C82.6972 7.61156 83.1923 8.42634 83.1923 9.29269C83.1923 10.3653 82.4394 11.1491 81.2223 12.3971L79.9228 13.7379C79.7991 13.8513 79.7991 13.872 79.7991 14.1298H83.873L84.1721 12.2837H83.8523C83.8214 12.4899 83.7389 13.0056 83.6151 13.2016C83.5532 13.2841 82.7694 13.2841 82.6044 13.2841H80.7685L82.1609 12.0258Z" fill="black"/>
<path d="M110.151 336.391C110.167 336.329 110.198 336.235 110.198 336.156C110.198 336 110.042 336 110.01 336C109.995 336 109.228 336.063 109.15 336.078C108.884 336.094 108.649 336.125 108.368 336.141C107.977 336.172 107.867 336.188 107.867 336.469C107.867 336.626 107.992 336.626 108.211 336.626C108.978 336.626 108.994 336.767 108.994 336.923C108.994 337.017 108.962 337.142 108.947 337.189L107.992 340.99C107.82 340.583 107.398 339.958 106.585 339.958C104.817 339.958 102.909 342.241 102.909 344.557C102.909 346.105 103.816 347.013 104.88 347.013C105.74 347.013 106.475 346.34 106.913 345.824C107.07 346.747 107.805 347.013 108.274 347.013C108.743 347.013 109.119 346.731 109.4 346.168C109.651 345.636 109.87 344.682 109.87 344.619C109.87 344.541 109.807 344.478 109.713 344.478C109.572 344.478 109.557 344.557 109.494 344.791C109.259 345.714 108.962 346.7 108.321 346.7C107.867 346.7 107.836 346.293 107.836 345.98C107.836 345.918 107.836 345.589 107.945 345.151L110.151 336.391ZM106.991 344.995C106.913 345.261 106.913 345.292 106.694 345.589C106.35 346.027 105.662 346.7 104.926 346.7C104.285 346.7 103.925 346.121 103.925 345.198C103.925 344.338 104.41 342.586 104.707 341.929C105.239 340.834 105.975 340.27 106.585 340.27C107.617 340.27 107.82 341.553 107.82 341.678C107.82 341.694 107.773 341.897 107.758 341.929L106.991 344.995Z" fill="black"/>
<path d="M113.516 342.56C113.516 342.278 113.495 342.268 113.214 342.268C112.786 342.685 112.234 342.935 111.243 342.935V343.279C111.524 343.279 112.088 343.279 112.692 342.998V348.347C112.692 348.733 112.661 348.858 111.67 348.858H111.305V349.202C111.733 349.171 112.63 349.171 113.099 349.171C113.568 349.171 114.476 349.171 114.903 349.202V348.858H114.538C113.548 348.858 113.516 348.733 113.516 348.347V342.56Z" fill="black"/>
</svg>
